<?xml version="1.0" encoding="UTF-8" standalone="no"?><!DOCTYPE svg PUBLIC "-//W3C//DTD SVG 1.1//EN" "http://www.w3.org/Graphics/SVG/1.1/DTD/svg11.dtd"><svg width="100%" height="100%" viewBox="0 0 72 73" version="1.1" xmlns="http://www.w3.org/2000/svg" xmlns:xlink="http://www.w3.org/1999/xlink" xml:space="preserve" xmlns:serif="http://www.serif.com/" style="fill-rule:evenodd;clip-rule:evenodd;stroke-linejoin:round;stroke-miterlimit:2;"><path d="M55.561,21.203c-0.774,0 -1.53,0.058 -2.279,0.178c0.157,-0.947 0.251,-1.905 0.251,-2.904c0,-10.2 -8.266,-18.477 -18.476,-18.477c-9.928,0 -18.014,7.855 -18.431,17.693c-9.266,0.47 -16.626,8.105 -16.626,17.483c0,9.688 7.848,17.534 17.539,17.534l38.022,0c8.699,0 15.757,-7.053 15.757,-15.755c0,-8.699 -7.058,-15.752 -15.757,-15.752" style="fill:#788b90;fill-rule:nonzero;"/><path d="M22.717,56.297c-1.204,-0.695 -2.735,-0.281 -3.427,0.919l-6.378,11.044c-0.694,1.2 -0.283,2.736 0.918,3.429c0.396,0.228 0.828,0.336 1.253,0.336c0.866,0 1.71,-0.45 2.174,-1.256l6.377,-11.043c0.695,-1.2 0.284,-2.736 -0.917,-3.429" style="fill:#5fc4d8;fill-rule:nonzero;"/><path d="M38.094,56.297c-1.202,-0.695 -2.733,-0.281 -3.427,0.919l-6.377,11.044c-0.695,1.2 -0.282,2.736 0.917,3.429c0.397,0.228 0.828,0.336 1.254,0.336c0.867,0 1.709,-0.45 2.173,-1.256l6.378,-11.043c0.694,-1.2 0.283,-2.736 -0.918,-3.429" style="fill:#5fc4d8;fill-rule:nonzero;"/><path d="M53.472,56.297c-1.204,-0.695 -2.736,-0.281 -3.428,0.919l-6.376,11.044c-0.694,1.2 -0.283,2.736 0.918,3.429c0.395,0.228 0.827,0.336 1.252,0.336c0.867,0 1.709,-0.45 2.176,-1.256l6.376,-11.043c0.695,-1.2 0.282,-2.736 -0.918,-3.429" style="fill:#5fc4d8;fill-rule:nonzero;"/></svg>