<?xml version="1.0" encoding="UTF-8" standalone="no"?><!DOCTYPE svg PUBLIC "-//W3C//DTD SVG 1.1//EN" "http://www.w3.org/Graphics/SVG/1.1/DTD/svg11.dtd"><svg width="100%" height="100%" viewBox="0 0 65 69" version="1.1" xmlns="http://www.w3.org/2000/svg" xmlns:xlink="http://www.w3.org/1999/xlink" xml:space="preserve" xmlns:serif="http://www.serif.com/" style="fill-rule:evenodd;clip-rule:evenodd;stroke-linejoin:round;stroke-miterlimit:2;"><path d="M60.981,37.301l-14.509,1.747l-7.96,-4.594l7.96,-4.595l14.512,1.749c0.123,0.014 0.249,0.023 0.373,0.023c1.563,0 2.916,-1.167 3.109,-2.759c0.204,-1.717 -1.019,-3.277 -2.736,-3.484l-6.221,-0.748l5.427,-3.131c1.495,-0.868 2.011,-2.783 1.145,-4.28c-0.87,-1.5 -2.79,-2.009 -4.28,-1.147l-5.421,3.13l2.46,-5.756c0.678,-1.591 -0.06,-3.432 -1.65,-4.111c-1.581,-0.679 -3.426,0.058 -4.11,1.649l-5.745,13.441l-7.962,4.593l0,-9.195l8.772,-11.689c1.042,-1.386 0.76,-3.349 -0.628,-4.386c-1.379,-1.041 -3.345,-0.753 -4.379,0.627l-3.765,5.011l0,-6.264c0,-1.73 -1.399,-3.132 -3.129,-3.132c-1.73,0 -3.129,1.402 -3.129,3.132l0,6.264l-3.764,-5.011c-1.035,-1.383 -2.998,-1.671 -4.38,-0.627c-1.387,1.037 -1.67,3 -0.628,4.386l8.772,11.689l0,9.194l-7.962,-4.593l-5.744,-13.442c-0.685,-1.592 -2.53,-2.329 -4.111,-1.648c-1.59,0.678 -2.328,2.52 -1.649,4.11l2.459,5.757l-5.421,-3.131c-1.497,-0.865 -3.412,-0.352 -4.28,1.147c-0.865,1.498 -0.349,3.414 1.145,4.279l5.427,3.132l-6.22,0.749c-1.717,0.206 -2.94,1.767 -2.737,3.484c0.193,1.591 1.547,2.758 3.109,2.758c0.124,0 0.25,-0.008 0.374,-0.022l14.512,-1.749l7.962,4.596l-7.962,4.596l-14.512,-1.747c-1.679,-0.214 -3.274,1.018 -3.483,2.735c-0.203,1.718 1.02,3.278 2.737,3.482l6.22,0.751l-5.427,3.131c-1.494,0.864 -2.01,2.779 -1.145,4.279c0.584,1.004 1.634,1.565 2.716,1.565c0.533,0 1.07,-0.135 1.564,-0.418l5.421,-3.131l-2.459,5.76c-0.679,1.588 0.059,3.432 1.649,4.109c0.399,0.172 0.816,0.255 1.23,0.255c1.215,0 2.376,-0.715 2.881,-1.903l5.744,-13.444l7.962,-4.593l0,9.189l-8.772,11.689c-1.042,1.385 -0.759,3.349 0.628,4.385c1.385,1.043 3.348,0.758 4.38,-0.626l3.764,-5.011l0,6.264c0,1.73 1.399,3.132 3.129,3.132c1.73,-0.001 3.129,-1.402 3.129,-3.133l0,-6.264l3.765,5.012c0.609,0.82 1.551,1.252 2.504,1.252c0.658,0.001 1.315,-0.203 1.875,-0.626c1.388,-1.036 1.67,-3 0.628,-4.385l-8.772,-11.689l0,-9.191l7.962,4.595l5.742,13.44c0.504,1.188 1.665,1.903 2.88,1.903c0.412,0 0.831,-0.082 1.23,-0.252c1.588,-0.68 2.328,-2.521 1.65,-4.11l-2.46,-5.761l5.424,3.132c0.494,0.284 1.031,0.417 1.565,0.417c1.081,0 2.132,-0.56 2.715,-1.564c0.866,-1.499 0.35,-3.415 -1.145,-4.28l-5.427,-3.129l6.218,-0.751c1.717,-0.204 2.939,-1.765 2.736,-3.482c-0.209,-1.718 -1.788,-2.945 -3.482,-2.736" style="fill:#80c0d0;fill-rule:nonzero;"/></svg>