<?xml version="1.0" encoding="UTF-8" standalone="no"?><!DOCTYPE svg PUBLIC "-//W3C//DTD SVG 1.1//EN" "http://www.w3.org/Graphics/SVG/1.1/DTD/svg11.dtd"><svg width="100%" height="100%" viewBox="0 0 73 73" version="1.1" xmlns="http://www.w3.org/2000/svg" xmlns:xlink="http://www.w3.org/1999/xlink" xml:space="preserve" xmlns:serif="http://www.serif.com/" style="fill-rule:evenodd;clip-rule:evenodd;stroke-linejoin:round;stroke-miterlimit:2;"><path d="M38.338,24.348c-0.685,-0.119 -1.387,-0.195 -2.107,-0.195c-6.671,0 -12.077,5.404 -12.077,12.077c0,6.671 5.406,12.077 12.077,12.077c0.72,0 1.422,-0.075 2.107,-0.195c-3.925,-2.502 -6.535,-6.882 -6.535,-11.882c0,-5.001 2.61,-9.38 6.535,-11.882" style="fill:#d4ae1b;fill-rule:nonzero;"/><path d="M36.231,52.333c-8.896,0 -16.103,-7.207 -16.103,-16.103c0,-8.895 7.207,-16.103 16.103,-16.103c8.896,0 16.102,7.208 16.102,16.103c0,8.896 -7.206,16.103 -16.102,16.103m32.939,-19.396l-9.914,0c-0.269,-1.873 -0.742,-3.673 -1.429,-5.374l8.575,-4.948c1.574,-0.912 2.112,-2.925 1.206,-4.501c-0.913,-1.577 -2.928,-2.118 -4.499,-1.204l-8.583,4.953c-1.148,-1.459 -2.468,-2.781 -3.929,-3.928l4.954,-8.582c0.909,-1.576 0.367,-3.589 -1.206,-4.501c-1.583,-0.914 -3.595,-0.368 -4.499,1.206l-4.95,8.578c-1.698,-0.686 -3.497,-1.159 -5.367,-1.425l0,-9.916c0,-1.818 -1.472,-3.295 -3.295,-3.295c-1.816,0 -3.292,1.477 -3.292,3.295l0,9.916c-1.872,0.267 -3.672,0.743 -5.373,1.428l-4.951,-8.58c-0.909,-1.574 -2.932,-2.113 -4.499,-1.204c-1.575,0.91 -2.117,2.925 -1.206,4.498l4.956,8.586c-1.461,1.152 -2.775,2.468 -3.927,3.927l-8.589,-4.956c-1.578,-0.914 -3.588,-0.366 -4.499,1.206c-0.906,1.578 -0.368,3.591 1.206,4.499l8.583,4.954c-0.687,1.698 -1.16,3.498 -1.424,5.37l-9.926,0c-1.818,0 -3.293,1.476 -3.293,3.293c0,1.818 1.475,3.294 3.293,3.294l9.927,0c0.263,1.868 0.741,3.667 1.423,5.365l-8.583,4.956c-1.574,0.91 -2.112,2.926 -1.206,4.499c0.611,1.057 1.719,1.648 2.858,1.648c0.559,0 1.125,-0.142 1.641,-0.442l8.591,-4.958c1.153,1.459 2.467,2.774 3.927,3.923l-4.96,8.593c-0.909,1.574 -0.367,3.586 1.206,4.498c0.521,0.298 1.087,0.439 1.642,0.439c1.141,0.001 2.247,-0.587 2.857,-1.644l4.953,-8.584c1.701,0.688 3.501,1.163 5.373,1.43l0,9.916c0,1.818 1.476,3.293 3.292,3.293c1.823,0 3.295,-1.475 3.295,-3.293l0,-9.916c1.87,-0.267 3.669,-0.742 5.367,-1.428l4.954,8.58c0.609,1.056 1.713,1.644 2.856,1.644c0.555,0 1.122,-0.141 1.642,-0.438c1.577,-0.911 2.115,-2.925 1.206,-4.499l-4.956,-8.586c1.459,-1.151 2.78,-2.468 3.925,-3.927l8.589,4.957c0.516,0.3 1.082,0.441 1.642,0.441c1.138,0 2.247,-0.59 2.857,-1.647c0.911,-1.578 0.368,-3.589 -1.206,-4.499l-8.58,-4.952c0.689,-1.7 1.162,-3.501 1.43,-5.372l9.915,0c1.818,0 3.292,-1.476 3.292,-3.293c0,-1.818 -1.474,-3.293 -3.292,-3.293" style="fill:#f8d047;fill-rule:nonzero;"/></svg>