<?xml version="1.0" encoding="UTF-8" standalone="no"?><!DOCTYPE svg PUBLIC "-//W3C//DTD SVG 1.1//EN" "http://www.w3.org/Graphics/SVG/1.1/DTD/svg11.dtd"><svg width="100%" height="100%" viewBox="0 0 58 61" version="1.1" xmlns="http://www.w3.org/2000/svg" xmlns:xlink="http://www.w3.org/1999/xlink" xml:space="preserve" xmlns:serif="http://www.serif.com/" style="fill-rule:evenodd;clip-rule:evenodd;stroke-linejoin:round;stroke-miterlimit:2;"><path d="M45.152,17.231c-0.627,0 -1.243,0.048 -1.853,0.146c0.128,-0.772 0.206,-1.55 0.206,-2.36c-0.001,-8.29 -6.718,-15.017 -15.016,-15.017c-8.069,0 -14.637,6.384 -14.977,14.378c-7.53,0.384 -13.512,6.588 -13.512,14.208c0,4.277 1.891,8.101 4.872,10.712c0.055,-4.976 4.116,-9.006 9.106,-9.006c2.768,0 5.02,2.252 5.02,5.021c0,1.193 -0.42,2.291 -1.118,3.155l27.789,0c2.146,0 3.967,1.359 4.684,3.255c4.476,-1.994 7.603,-6.474 7.603,-11.693c0,-7.067 -5.735,-12.799 -12.804,-12.799" style="fill:#b8ccd3;fill-rule:nonzero;"/><path d="M45.669,48.509l-19.976,0c-3.178,0 -5.763,2.585 -5.763,5.762c0,3.175 2.585,5.761 5.763,5.761c0.923,0 1.673,-0.749 1.673,-1.674c0,-0.925 -0.75,-1.674 -1.673,-1.674c-1.332,0 -2.416,-1.081 -2.416,-2.413c0,-1.332 1.084,-2.415 2.416,-2.415l19.976,0c0.923,0 1.674,-0.748 1.674,-1.673c0,-0.925 -0.751,-1.674 -1.674,-1.674" style="fill:#0b778e;fill-rule:nonzero;"/><path d="M45.669,41.814l-31.692,0c-1.332,0 -2.415,-1.082 -2.415,-2.414c0,-1.332 1.083,-2.413 2.415,-2.413c0.924,0 1.674,-0.749 1.674,-1.674c0,-0.925 -0.75,-1.674 -1.674,-1.674c-3.177,0 -5.763,2.586 -5.763,5.761c0,3.176 2.586,5.762 5.763,5.762l31.692,0c0.923,0 1.674,-0.749 1.674,-1.674c0,-0.925 -0.751,-1.674 -1.674,-1.674" style="fill:#0b778e;fill-rule:nonzero;"/></svg>